<svg id="logosandtypes_com" xmlns="http://www.w3.org/2000/svg" viewBox="0 0 150 150.2"><path d="M0 .2h150v150H0V.2z" fill="none"/><g><linearGradient id="a" gradientUnits="userSpaceOnUse" x1="75.8966" y1="10.6649" x2="75.8966" y2="137.4296"><stop offset="0" stop-color="#f19c1f"/><stop offset=".2945" stop-color="#e8721b"/></linearGradient><path d="M128.8 41.1c-9.3-15.3-24.9-26.7-43.4-29.8-3.6-.7-7.1-.9-10.9-.9-19.6 0-36.9 8.7-48.5 22.5-2.2 2.9-2.7 4 .2 4h75.9c1.1 0 2.4.7 3.1 1.6l10.5 16.2c.7.9.9 2.4.7 3.6l-10 47.8c-.2 1.1-1.3 2-2.4 2H87c-.8 0-1.8-.4-2.5-.9-.2-.2-21.3-32-21.3-32l-6.5 31.1c0 .9-1.1 1.8-2.2 1.8H42.1c-1.1 0-1.8-.9-1.6-2l9.1-44.5c.2-1.1 1.3-2 2.4-2h16.7v.2c1.1 0 2.4.7 3.1 1.6l20.9 31.4 8.2-41.2H47.2c-17.1 0-33.4 7.8-33.4 31.4 0 24 24.5 53.8 60.7 53.8 10.5 0 20.2-2.4 28.9-6.9 20.5-10.5 34.5-31.8 34.5-56.3-.2-11.8-3.3-22.9-9.1-32.5z" fill="url(#a)"/><linearGradient id="b" gradientUnits="userSpaceOnUse" x1="104.2299" y1="91.3012" x2="59.0285" y2="74.8492" gradientTransform="matrix(1 0 0 -1 0 152)"><stop offset=".3374" stop-color="#f4aa1c"/><stop offset=".8466" stop-color="#ed8722"/></linearGradient><path d="M68.8 59.8c1.1 0 2.4.7 3.1 1.6l20.9 31.4 8.2-41.2H52.8v8h16v.2z" fill="url(#b)"/><linearGradient id="c" gradientUnits="userSpaceOnUse" x1="95.2509" y1="19.5878" x2="95.2509" y2="110.8887" gradientTransform="matrix(1 0 0 -1 0 152)"><stop offset=".0061" stop-color="#ec7e23"/><stop offset=".2515" stop-color="#f09220"/><stop offset=".7791" stop-color="#f09220"/><stop offset=".9939" stop-color="#f19c1f"/></linearGradient><path d="M128.8 41.1c4.7 13.1 2.7 27.8-5.1 37.6-3.1 3.8-8 7.6-13.8 10.5l-3.6 16.9c-.2 1.1-1.3 2-2.4 2H87c-1.1 0-2.4-.7-3.1-1.6L63.2 75.1l-1.6 7.3-4.9 23.8c0 .9-1.1 1.8-2.2 1.8h-2c0 14.5 19.1 30.7 50.9 21.8 20.5-10.5 34.5-31.8 34.5-56.3-.2-11.7-3.3-22.8-9.1-32.4z" fill="url(#c)"/><linearGradient id="d" gradientUnits="userSpaceOnUse" x1="31.9108" y1="31.1199" x2="78.286" y2="70.0332" gradientTransform="matrix(1 0 0 -1 0 152)"><stop offset=".2147" stop-color="#e66124"/><stop offset=".5399" stop-color="#e86c24"/><stop offset=".816" stop-color="#ed8722"/></linearGradient><path d="M13.8 82.9c0-23.6 16.2-31.4 33.4-31.4H53v8h-.9c-1.1 0-2.2.9-2.4 2L49 64l-8.5 42c-.2 1.1.4 2 1.6 2h10.5c0 14.5 19.1 30.7 50.9 21.8-8.7 4.4-18.5 6.9-28.9 6.9-36.3.1-60.8-29.7-60.8-53.8z" fill="url(#d)"/><linearGradient id="e" gradientUnits="userSpaceOnUse" x1="78.4221" y1="87.9292" x2="111.6642" y2="129.6749" gradientTransform="matrix(1 0 0 -1 0 152)"><stop offset=".5153" stop-color="#f4aa1c"/><stop offset=".8589" stop-color="#fcc90a"/></linearGradient><path d="M109.9 89.2c5.8-2.7 10.7-6.5 13.8-10.5 8-9.8 9.8-24.5 5.1-37.6-9.3-15.3-24.9-26.7-43.4-29.8C73 10.4 61.2 13.7 55 22c-2.9 3.8-3.3 8.9-2 14.9h49.2c1.1 0 2.4.7 3.1 1.6l10.5 16.2c.7.9.9 2.4.7 3.6l-6.6 30.9z" fill="url(#e)"/><linearGradient id="f" gradientUnits="userSpaceOnUse" x1="54.8595" y1="115.1471" x2="54.8595" y2="141.6592" gradientTransform="matrix(1 0 0 -1 0 152)"><stop offset=".0061" stop-color="#ec7e23"/><stop offset=".2515" stop-color="#f09220"/><stop offset=".7791" stop-color="#f09220"/><stop offset=".9939" stop-color="#f19c1f"/></linearGradient><path d="M85.5 11.3C73 10.4 61.2 13.7 55 22c-2.9 3.8-3.3 8.9-2 14.9H26.3c-2.9 0-2.4-1.1-.2-4C37.6 19.1 55 10.4 74.6 10.4c3.7 0 7.3.2 10.9.9z" fill="url(#f)"/><linearGradient id="g" gradientUnits="userSpaceOnUse" x1="40.3924" y1="43.9273" x2="40.3924" y2="87.975" gradientTransform="matrix(1 0 0 -1 0 152)"><stop offset=".3067" stop-color="#e76524"/><stop offset=".6258" stop-color="#df541a"/></linearGradient><path d="M40.5 106.1L49 64h-6.2c-1.1 0-2.2.9-2.4 2l-8.5 40c-.2 1.1.4 2 1.6 2H42c-1 .1-1.7-.8-1.5-1.9z" fill="url(#g)"/><linearGradient id="h" gradientUnits="userSpaceOnUse" x1="74.3394" y1="43.9933" x2="74.3394" y2="77.0236" gradientTransform="matrix(1 0 0 -1 0 152)"><stop offset="0" stop-color="#f19c1f"/><stop offset=".2945" stop-color="#e8721b"/></linearGradient><path d="M80.3 108.1H87c-1.1 0-2.4-.7-3.1-1.6L63.2 75.1l-1.6 7.3L77 106.3c.7.9 2.2 1.8 3.3 1.8z" fill="url(#h)"/></g></svg>